<svg width="30" height="30" viewBox="0 0 30 30" fill="none" xmlns="http://www.w3.org/2000/svg">
<path d="M25.3125 9.375H19.6875C18.9418 9.37575 18.2269 9.6723 17.6996 10.1996C17.1723 10.7269 16.8757 11.4418 16.875 12.1875V17.8125C16.8755 18.3096 17.0732 18.7863 17.4247 19.1378C17.7762 19.4893 18.2529 19.687 18.75 19.6875V26.25C18.7505 26.7471 18.9482 27.2238 19.2997 27.5753C19.6512 27.9268 20.1279 28.1245 20.625 28.125H24.375C24.8721 28.1245 25.3488 27.9268 25.7003 27.5753C26.0518 27.2238 26.2495 26.7471 26.25 26.25V19.6875C26.7471 19.687 27.2238 19.4893 27.5753 19.1378C27.9268 18.7863 28.1245 18.3096 28.125 17.8125V12.1875C28.1243 11.4418 27.8277 10.7269 27.3004 10.1996C26.7731 9.6723 26.0582 9.37575 25.3125 9.375ZM26.25 17.8125H24.375V26.25H20.625V17.8125H18.75V12.1875C18.75 11.9389 18.8488 11.7004 19.0246 11.5246C19.2004 11.3488 19.4389 11.25 19.6875 11.25H25.3125C25.5611 11.25 25.7996 11.3488 25.9754 11.5246C26.1512 11.7004 26.25 11.9389 26.25 12.1875V17.8125ZM18.75 4.6875C18.75 3.94582 18.9699 3.2208 19.382 2.60411C19.794 1.98743 20.3797 1.50678 21.0649 1.22295C21.7502 0.939125 22.5042 0.864862 23.2316 1.00956C23.959 1.15425 24.6272 1.5114 25.1516 2.03585C25.6761 2.5603 26.0333 3.22848 26.1779 3.95591C26.3226 4.68334 26.2484 5.43734 25.9645 6.12256C25.6807 6.80779 25.2001 7.39346 24.5834 7.80551C23.9667 8.21757 23.2417 8.4375 22.5 8.4375C21.5057 8.43651 20.5525 8.0411 19.8494 7.33806C19.1464 6.63501 18.751 5.68176 18.75 4.6875ZM20.625 4.6875C20.625 5.05834 20.735 5.42085 20.941 5.7292C21.147 6.03754 21.4399 6.27786 21.7825 6.41978C22.1251 6.56169 22.5021 6.59882 22.8658 6.52647C23.2295 6.45413 23.5636 6.27555 23.8258 6.01333C24.088 5.7511 24.2666 5.41701 24.339 5.0533C24.4113 4.68958 24.3742 4.31258 24.2323 3.96997C24.0904 3.62736 23.85 3.33452 23.5417 3.1285C23.2334 2.92247 22.8708 2.8125 22.5 2.8125C22.0029 2.813 21.5262 3.0107 21.1747 3.36222C20.8232 3.71375 20.6255 4.19037 20.625 4.6875ZM13.125 15V12.1875C13.1243 11.4418 12.8277 10.7269 12.3004 10.1996C11.7731 9.6723 11.0582 9.37575 10.3125 9.375H4.6875C3.94181 9.37575 3.22687 9.6723 2.69958 10.1996C2.1723 10.7269 1.87574 11.4418 1.875 12.1875V15H0V16.875H15V15H13.125ZM3.75 12.1875C3.75 11.9389 3.84877 11.7004 4.02459 11.5246C4.2004 11.3488 4.43886 11.25 4.6875 11.25H10.3125C10.5611 11.25 10.7996 11.3488 10.9754 11.5246C11.1512 11.7004 11.25 11.9389 11.25 12.1875V15H3.75V12.1875ZM3.75 4.6875C3.75 3.94582 3.96993 3.2208 4.38199 2.60411C4.79404 1.98743 5.37971 1.50678 6.06494 1.22295C6.75016 0.939125 7.50416 0.864862 8.23159 1.00956C8.95902 1.15425 9.6272 1.5114 10.1517 2.03585C10.6761 2.5603 11.0333 3.22848 11.1779 3.95591C11.3226 4.68334 11.2484 5.43734 10.9645 6.12256C10.6807 6.80779 10.2001 7.39346 9.58339 7.80551C8.9667 8.21757 8.24168 8.4375 7.5 8.4375C6.50574 8.43651 5.55249 8.0411 4.84945 7.33806C4.1464 6.63501 3.75099 5.68176 3.75 4.6875ZM5.625 4.6875C5.625 5.05834 5.73497 5.42085 5.94099 5.7292C6.14702 6.03754 6.43986 6.27786 6.78247 6.41978C7.12508 6.56169 7.50208 6.59882 7.86579 6.52647C8.22951 6.45413 8.5636 6.27555 8.82582 6.01333C9.08805 5.7511 9.26663 5.41701 9.33897 5.0533C9.41132 4.68958 9.37419 4.31258 9.23227 3.96997C9.09036 3.62736 8.85004 3.33452 8.54169 3.1285C8.23335 2.92247 7.87084 2.8125 7.5 2.8125C7.00287 2.813 6.52625 3.0107 6.17472 3.36222C5.8232 3.71375 5.6255 4.19037 5.625 4.6875Z" fill="#5C9C0E"/>
</svg>
