<svg width="24" height="24" viewBox="0 0 24 24" fill="none" xmlns="http://www.w3.org/2000/svg">
<g id="fluent:list-bar-16-filled">
<path id="Vector" d="M9 21H19.125C20.16 21 21 20.16 21 19.125V18.375C21 17.34 20.16 16.5 19.125 16.5H9V21ZM9 15H19.125C20.16 15 21 14.16 21 13.125V10.875C21 9.84 20.16 9 19.125 9H9V15ZM7.5 9V15H4.875C3.84 15 3 14.16 3 13.125V10.875C3 9.84 3.84 9 4.875 9H7.5ZM9 7.5H19.125C20.16 7.5 21 6.66 21 5.625V4.875C21 3.84 20.16 3 19.125 3H9V7.5ZM7.5 3V7.5H4.875C3.84 7.5 3 6.66 3 5.625V4.875C3 3.84 3.84 3 4.875 3H7.5ZM7.5 16.5V21H4.875C3.84 21 3 20.16 3 19.125V18.375C3 17.34 3.84 16.5 4.875 16.5H7.5Z" fill="#5C9C0E"/>
</g>
</svg>
