<svg width="276" height="249" viewBox="0 0 276 249" fill="none" xmlns="http://www.w3.org/2000/svg">
<rect y="9" width="276" height="230" rx="10" fill="#ACE961"/>
<path d="M200.338 62.1129C186.756 48.5308 169.096 39.775 150.064 37.1864C131.031 34.5977 111.674 38.3189 94.958 47.7802C78.2418 57.2414 65.0875 71.921 57.5096 89.571C49.9318 107.221 48.348 126.868 53.001 145.504C57.654 164.14 68.2871 180.737 83.2721 192.754C98.257 204.77 116.768 211.544 135.969 212.037C155.171 212.531 174.005 206.716 189.587 195.485C205.17 184.254 216.641 168.225 222.245 149.852L213.572 147.207C208.546 163.683 198.259 178.057 184.285 188.129C170.312 198.201 153.422 203.415 136.202 202.973C118.983 202.53 102.383 196.456 88.9447 185.68C75.5065 174.904 65.971 160.02 61.7983 143.308C57.6257 126.596 59.0459 108.976 65.8415 93.1482C72.6372 77.3202 84.4336 64.1559 99.4243 55.6713C114.415 47.1867 131.773 43.8496 148.842 46.171C165.91 48.4925 181.746 56.3444 193.926 68.5245L200.338 62.1129Z" fill="#F0AD00"/>
<circle cx="138.294" cy="124.294" r="77.9897" transform="rotate(-45 138.294 124.294)" fill="white"/>
<path d="M118.979 120.12C118.979 124.29 118.034 127.395 116.144 129.435C114.254 131.445 111.644 132.45 108.314 132.45C107.144 132.45 105.884 132.315 104.534 132.045C103.214 131.775 101.804 131.295 100.304 130.605L101.654 127.32C102.974 127.89 104.174 128.31 105.254 128.58C106.364 128.82 107.354 128.94 108.224 128.94C110.354 128.94 112.064 128.28 113.354 126.96C114.644 125.64 115.289 123.36 115.289 120.12V117.465C114.209 118.395 113.054 119.145 111.824 119.715C110.594 120.285 109.289 120.57 107.909 120.57C105.269 120.57 103.199 119.745 101.699 118.095C100.199 116.415 99.4489 114.21 99.4489 111.48V110.13C99.4489 108.36 99.8239 106.785 100.574 105.405C101.354 104.025 102.449 102.945 103.859 102.165C105.299 101.355 107.009 100.95 108.989 100.95C112.199 100.95 114.659 102.045 116.369 104.235C118.109 106.425 118.979 109.5 118.979 113.46V120.12ZM103.184 111.48C103.184 113.19 103.634 114.555 104.534 115.575C105.464 116.595 106.754 117.105 108.404 117.105C109.664 117.105 110.864 116.835 112.004 116.295C113.174 115.725 114.269 114.96 115.289 114V113.46C115.289 110.43 114.734 108.18 113.624 106.71C112.544 105.24 110.984 104.505 108.944 104.505C107.144 104.505 105.734 105.03 104.714 106.08C103.694 107.13 103.184 108.48 103.184 110.13V111.48ZM142.084 132H124.624V129.03C124.624 126.78 124.894 124.89 125.434 123.36C126.004 121.83 126.754 120.57 127.684 119.58C128.644 118.56 129.709 117.75 130.879 117.15L133.804 115.665C135.184 114.945 136.279 114.195 137.089 113.415C137.929 112.635 138.349 111.51 138.349 110.04V109.275C138.349 107.595 137.869 106.38 136.909 105.63C135.979 104.88 134.599 104.505 132.769 104.505C131.749 104.505 130.669 104.64 129.529 104.91C128.389 105.15 127.129 105.57 125.749 106.17L124.489 102.885C125.989 102.195 127.429 101.7 128.809 101.4C130.219 101.1 131.569 100.95 132.859 100.95C136.189 100.95 138.574 101.73 140.014 103.29C141.454 104.82 142.174 106.815 142.174 109.275V110.04C142.174 111.66 141.859 113.01 141.229 114.09C140.629 115.17 139.819 116.085 138.799 116.835C137.809 117.555 136.744 118.2 135.604 118.77L132.679 120.3C131.269 121.05 130.219 122.085 129.529 123.405C128.869 124.725 128.509 126.405 128.449 128.445H142.084V132ZM158.607 107.43V108.825C158.607 110.835 158.067 112.395 156.987 113.505C155.937 114.585 154.467 115.125 152.577 115.125C150.657 115.125 149.172 114.585 148.122 113.505C147.072 112.395 146.547 110.835 146.547 108.825V107.43C146.547 105.45 147.072 103.92 148.122 102.84C149.172 101.73 150.657 101.175 152.577 101.175C154.467 101.175 155.937 101.73 156.987 102.84C158.067 103.92 158.607 105.45 158.607 107.43ZM168.012 101.4H171.207L155.547 132H152.352L168.012 101.4ZM155.637 107.43C155.637 106.29 155.367 105.42 154.827 104.82C154.287 104.22 153.537 103.92 152.577 103.92C151.617 103.92 150.867 104.22 150.327 104.82C149.787 105.42 149.517 106.29 149.517 107.43V108.825C149.517 109.995 149.787 110.88 150.327 111.48C150.867 112.08 151.617 112.38 152.577 112.38C153.537 112.38 154.287 112.08 154.827 111.48C155.367 110.88 155.637 109.995 155.637 108.825V107.43ZM177.012 124.53V125.925C177.012 127.935 176.472 129.495 175.392 130.605C174.342 131.685 172.872 132.225 170.982 132.225C169.062 132.225 167.577 131.685 166.527 130.605C165.477 129.495 164.952 127.935 164.952 125.925V124.53C164.952 122.55 165.477 121.02 166.527 119.94C167.577 118.83 169.062 118.275 170.982 118.275C172.902 118.275 174.387 118.83 175.437 119.94C176.487 121.02 177.012 122.55 177.012 124.53ZM174.087 124.53C174.087 122.19 173.052 121.02 170.982 121.02C170.022 121.02 169.272 121.32 168.732 121.92C168.192 122.52 167.922 123.39 167.922 124.53V125.925C167.922 127.095 168.192 127.98 168.732 128.58C169.272 129.18 170.022 129.48 170.982 129.48C173.052 129.48 174.087 128.295 174.087 125.925V124.53Z" fill="#5C9C0E"/>
<path d="M91.5455 162V152.48H94.6815C95.6802 152.48 96.4268 152.732 96.9215 153.236C97.4255 153.74 97.6775 154.412 97.6775 155.252V155.994C97.6775 156.834 97.4255 157.511 96.9215 158.024C96.4268 158.528 95.6802 158.78 94.6815 158.78H93.2255V162H91.5455ZM94.6815 154.09H93.2255V157.17H94.6815C95.0922 157.17 95.4048 157.067 95.6195 156.862C95.8435 156.657 95.9555 156.367 95.9555 155.994V155.252C95.9555 154.888 95.8435 154.603 95.6195 154.398C95.4048 154.193 95.0922 154.09 94.6815 154.09ZM103.242 156.372C102.803 156.372 102.383 156.442 101.982 156.582C101.59 156.713 101.212 156.927 100.848 157.226V162H99.2378V154.902H100.764V155.994C101.24 155.546 101.665 155.229 102.038 155.042C102.411 154.855 102.813 154.762 103.242 154.762V156.372ZM110.462 158.024V158.864C110.462 159.853 110.191 160.647 109.65 161.244C109.109 161.841 108.343 162.14 107.354 162.14C106.365 162.14 105.599 161.841 105.058 161.244C104.517 160.647 104.246 159.853 104.246 158.864V158.024C104.246 157.035 104.512 156.246 105.044 155.658C105.585 155.061 106.355 154.762 107.354 154.762C108.353 154.762 109.118 155.061 109.65 155.658C110.191 156.246 110.462 157.035 110.462 158.024ZM108.81 158.024C108.81 157.455 108.684 157.011 108.432 156.694C108.18 156.367 107.821 156.204 107.354 156.204C106.887 156.204 106.528 156.367 106.276 156.694C106.024 157.011 105.898 157.455 105.898 158.024V158.864C105.898 159.433 106.024 159.881 106.276 160.208C106.528 160.535 106.887 160.698 107.354 160.698C107.821 160.698 108.18 160.535 108.432 160.208C108.684 159.881 108.81 159.433 108.81 158.864V158.024ZM113.919 153.558H112.225V151.892H113.919V153.558ZM110.811 165.122V163.61C111.278 163.61 111.637 163.498 111.889 163.274C112.141 163.05 112.267 162.644 112.267 162.056V154.902H113.877V162.056C113.877 162.588 113.788 163.087 113.611 163.554C113.443 164.021 113.135 164.399 112.687 164.688C112.248 164.977 111.623 165.122 110.811 165.122ZM121.485 161.594C121 161.79 120.543 161.93 120.113 162.014C119.684 162.098 119.278 162.14 118.895 162.14C117.841 162.14 117.043 161.841 116.501 161.244C115.96 160.647 115.689 159.853 115.689 158.864V158.024C115.689 157.361 115.811 156.787 116.053 156.302C116.296 155.817 116.641 155.439 117.089 155.168C117.537 154.897 118.065 154.762 118.671 154.762C119.166 154.762 119.628 154.865 120.057 155.07C120.496 155.266 120.851 155.579 121.121 156.008C121.401 156.428 121.541 156.969 121.541 157.632C121.541 157.828 121.527 158.038 121.499 158.262C121.471 158.477 121.425 158.705 121.359 158.948H117.243C117.262 159.527 117.407 159.961 117.677 160.25C117.948 160.539 118.382 160.684 118.979 160.684C119.297 160.684 119.623 160.647 119.959 160.572C120.305 160.497 120.659 160.385 121.023 160.236L121.485 161.594ZM118.671 156.12C118.242 156.12 117.906 156.26 117.663 156.54C117.43 156.811 117.295 157.203 117.257 157.716H119.945C119.955 157.669 119.959 157.627 119.959 157.59C119.959 157.543 119.959 157.501 119.959 157.464C119.959 157.016 119.833 156.68 119.581 156.456C119.329 156.232 119.026 156.12 118.671 156.12ZM124.628 158.038V158.864C124.628 159.461 124.735 159.909 124.95 160.208C125.165 160.507 125.51 160.656 125.986 160.656C126.219 160.656 126.481 160.628 126.77 160.572C127.069 160.507 127.391 160.409 127.736 160.278L128.198 161.636C127.778 161.804 127.381 161.93 127.008 162.014C126.635 162.098 126.266 162.14 125.902 162.14C124.969 162.14 124.255 161.841 123.76 161.244C123.265 160.647 123.018 159.853 123.018 158.864V158.038C123.018 157.039 123.265 156.246 123.76 155.658C124.255 155.061 124.969 154.762 125.902 154.762C126.257 154.762 126.616 154.804 126.98 154.888C127.344 154.972 127.727 155.093 128.128 155.252L127.666 156.638C126.994 156.377 126.434 156.246 125.986 156.246C125.51 156.246 125.165 156.395 124.95 156.694C124.735 156.983 124.628 157.431 124.628 158.038ZM133.941 161.762C133.699 161.874 133.419 161.963 133.101 162.028C132.784 162.103 132.462 162.14 132.135 162.14C131.594 162.14 131.16 162.028 130.833 161.804C130.507 161.58 130.269 161.267 130.119 160.866C129.979 160.465 129.909 160.007 129.909 159.494V156.302H128.761V154.902H129.909V153.054H131.519V154.902H133.731V156.302H131.519V159.494C131.519 159.923 131.599 160.222 131.757 160.39C131.925 160.549 132.163 160.628 132.471 160.628C132.621 160.628 132.779 160.614 132.947 160.586C133.125 160.549 133.321 160.488 133.535 160.404L133.941 161.762ZM140.321 160.586C141.403 160.586 141.945 160.185 141.945 159.382C141.945 159.055 141.861 158.799 141.693 158.612C141.534 158.425 141.235 158.262 140.797 158.122L139.649 157.744C138.277 157.296 137.591 156.395 137.591 155.042C137.591 154.258 137.833 153.614 138.319 153.11C138.813 152.597 139.583 152.34 140.629 152.34C141.067 152.34 141.501 152.391 141.931 152.494C142.36 152.587 142.817 152.741 143.303 152.956L142.785 154.398C142.337 154.221 141.954 154.095 141.637 154.02C141.329 153.936 141.011 153.894 140.685 153.894C140.255 153.894 139.915 153.973 139.663 154.132C139.42 154.281 139.299 154.557 139.299 154.958C139.299 155.257 139.383 155.504 139.551 155.7C139.728 155.887 140.017 156.045 140.419 156.176L141.567 156.554C142.257 156.787 142.775 157.128 143.121 157.576C143.475 158.015 143.653 158.598 143.653 159.326C143.653 160.166 143.387 160.847 142.855 161.37C142.323 161.883 141.487 162.14 140.349 162.14C139.901 162.14 139.434 162.089 138.949 161.986C138.473 161.874 137.95 161.687 137.381 161.426L137.899 159.984C138.421 160.208 138.865 160.367 139.229 160.46C139.602 160.544 139.966 160.586 140.321 160.586ZM149.513 162V161.062C149.083 161.435 148.682 161.711 148.309 161.888C147.935 162.056 147.557 162.14 147.175 162.14C146.54 162.14 146.05 161.925 145.705 161.496C145.359 161.057 145.187 160.446 145.187 159.662V154.902H146.797V159.466C146.797 160.25 147.086 160.642 147.665 160.642C147.898 160.642 148.15 160.586 148.421 160.474C148.701 160.362 149.037 160.147 149.429 159.83V154.902H151.039V162H149.513ZM154.487 158.038V158.864C154.487 159.461 154.595 159.909 154.809 160.208C155.024 160.507 155.369 160.656 155.845 160.656C156.079 160.656 156.34 160.628 156.629 160.572C156.928 160.507 157.25 160.409 157.595 160.278L158.057 161.636C157.637 161.804 157.241 161.93 156.867 162.014C156.494 162.098 156.125 162.14 155.761 162.14C154.828 162.14 154.114 161.841 153.619 161.244C153.125 160.647 152.877 159.853 152.877 158.864V158.038C152.877 157.039 153.125 156.246 153.619 155.658C154.114 155.061 154.828 154.762 155.761 154.762C156.116 154.762 156.475 154.804 156.839 154.888C157.203 154.972 157.586 155.093 157.987 155.252L157.525 156.638C156.853 156.377 156.293 156.246 155.845 156.246C155.369 156.246 155.024 156.395 154.809 156.694C154.595 156.983 154.487 157.431 154.487 158.038ZM160.763 158.038V158.864C160.763 159.461 160.87 159.909 161.085 160.208C161.299 160.507 161.645 160.656 162.121 160.656C162.354 160.656 162.615 160.628 162.905 160.572C163.203 160.507 163.525 160.409 163.871 160.278L164.333 161.636C163.913 161.804 163.516 161.93 163.143 162.014C162.769 162.098 162.401 162.14 162.037 162.14C161.103 162.14 160.389 161.841 159.895 161.244C159.4 160.647 159.153 159.853 159.153 158.864V158.038C159.153 157.039 159.4 156.246 159.895 155.658C160.389 155.061 161.103 154.762 162.037 154.762C162.391 154.762 162.751 154.804 163.115 154.888C163.479 154.972 163.861 155.093 164.263 155.252L163.801 156.638C163.129 156.377 162.569 156.246 162.121 156.246C161.645 156.246 161.299 156.395 161.085 156.694C160.87 156.983 160.763 157.431 160.763 158.038ZM171.196 161.594C170.711 161.79 170.254 161.93 169.824 162.014C169.395 162.098 168.989 162.14 168.606 162.14C167.552 162.14 166.754 161.841 166.212 161.244C165.671 160.647 165.4 159.853 165.4 158.864V158.024C165.4 157.361 165.522 156.787 165.764 156.302C166.007 155.817 166.352 155.439 166.8 155.168C167.248 154.897 167.776 154.762 168.382 154.762C168.877 154.762 169.339 154.865 169.768 155.07C170.207 155.266 170.562 155.579 170.832 156.008C171.112 156.428 171.252 156.969 171.252 157.632C171.252 157.828 171.238 158.038 171.21 158.262C171.182 158.477 171.136 158.705 171.07 158.948H166.954C166.973 159.527 167.118 159.961 167.388 160.25C167.659 160.539 168.093 160.684 168.69 160.684C169.008 160.684 169.334 160.647 169.67 160.572C170.016 160.497 170.37 160.385 170.734 160.236L171.196 161.594ZM168.382 156.12C167.953 156.12 167.617 156.26 167.374 156.54C167.141 156.811 167.006 157.203 166.968 157.716H169.656C169.666 157.669 169.67 157.627 169.67 157.59C169.67 157.543 169.67 157.501 169.67 157.464C169.67 157.016 169.544 156.68 169.292 156.456C169.04 156.232 168.737 156.12 168.382 156.12ZM175.095 160.74C175.44 160.74 175.725 160.684 175.949 160.572C176.173 160.451 176.285 160.273 176.285 160.04C176.285 159.835 176.21 159.676 176.061 159.564C175.921 159.443 175.664 159.335 175.291 159.242L174.493 159.032C173.877 158.873 173.42 158.607 173.121 158.234C172.832 157.861 172.687 157.417 172.687 156.904C172.687 156.297 172.897 155.789 173.317 155.378C173.737 154.967 174.386 154.762 175.263 154.762C175.618 154.762 175.991 154.804 176.383 154.888C176.775 154.972 177.186 155.107 177.615 155.294L177.153 156.666C176.761 156.479 176.406 156.349 176.089 156.274C175.772 156.199 175.492 156.162 175.249 156.162C174.586 156.162 174.255 156.386 174.255 156.834C174.255 157.011 174.311 157.151 174.423 157.254C174.544 157.357 174.764 157.45 175.081 157.534L175.879 157.744C176.56 157.921 177.055 158.192 177.363 158.556C177.68 158.92 177.839 159.377 177.839 159.928C177.839 160.581 177.615 161.113 177.167 161.524C176.728 161.935 176.033 162.14 175.081 162.14C174.269 162.14 173.415 161.953 172.519 161.58L172.953 160.25C173.392 160.427 173.788 160.553 174.143 160.628C174.498 160.703 174.815 160.74 175.095 160.74ZM181.48 160.74C181.825 160.74 182.11 160.684 182.334 160.572C182.558 160.451 182.67 160.273 182.67 160.04C182.67 159.835 182.595 159.676 182.446 159.564C182.306 159.443 182.049 159.335 181.676 159.242L180.878 159.032C180.262 158.873 179.804 158.607 179.506 158.234C179.216 157.861 179.072 157.417 179.072 156.904C179.072 156.297 179.282 155.789 179.702 155.378C180.122 154.967 180.77 154.762 181.648 154.762C182.002 154.762 182.376 154.804 182.768 154.888C183.16 154.972 183.57 155.107 184 155.294L183.538 156.666C183.146 156.479 182.791 156.349 182.474 156.274C182.156 156.199 181.876 156.162 181.634 156.162C180.971 156.162 180.64 156.386 180.64 156.834C180.64 157.011 180.696 157.151 180.808 157.254C180.929 157.357 181.148 157.45 181.466 157.534L182.264 157.744C182.945 157.921 183.44 158.192 183.748 158.556C184.065 158.92 184.224 159.377 184.224 159.928C184.224 160.581 184 161.113 183.552 161.524C183.113 161.935 182.418 162.14 181.466 162.14C180.654 162.14 179.8 161.953 178.904 161.58L179.338 160.25C179.776 160.427 180.173 160.553 180.528 160.628C180.882 160.703 181.2 160.74 181.48 160.74Z" fill="black"/>
</svg>
