<svg width="30" height="30" viewBox="0 0 30 30" fill="none" xmlns="http://www.w3.org/2000/svg">
<path fill-rule="evenodd" clip-rule="evenodd" d="M17.5 25.625V5.3125C17.5 4.4025 17.4975 3.8125 17.44 3.38C17.385 2.97375 17.2962 2.84625 17.225 2.775C17.1537 2.70375 17.0262 2.615 16.62 2.56C16.1862 2.5025 15.5975 2.5 14.6875 2.5C13.7775 2.5 13.1875 2.5025 12.755 2.56C12.3488 2.615 12.2213 2.70375 12.15 2.775C12.0788 2.84625 11.99 2.97375 11.935 3.38C11.8775 3.81375 11.875 4.4025 11.875 5.3125V25.625H17.5Z" fill="#5C9C0E"/>
<path opacity="0.7" d="M10 10.9375C10 10.6889 9.90123 10.4504 9.72541 10.2746C9.5496 10.0988 9.31114 10 9.0625 10H5.3125C5.06386 10 4.8254 10.0988 4.64959 10.2746C4.47377 10.4504 4.375 10.6889 4.375 10.9375V25.625H10V10.9375ZM25 17.1875C25 16.9389 24.9012 16.7004 24.7254 16.5246C24.5496 16.3488 24.3111 16.25 24.0625 16.25H20.3125C20.0639 16.25 19.8254 16.3488 19.6496 16.5246C19.4738 16.7004 19.375 16.9389 19.375 17.1875V25.625H25V17.1875Z" fill="#5C9C0E"/>
<path opacity="0.5" d="M2.1875 25.625C1.93886 25.625 1.7004 25.7238 1.52459 25.8996C1.34877 26.0754 1.25 26.3139 1.25 26.5625C1.25 26.8111 1.34877 27.0496 1.52459 27.2254C1.7004 27.4012 1.93886 27.5 2.1875 27.5H27.1875C27.4361 27.5 27.6746 27.4012 27.8504 27.2254C28.0262 27.0496 28.125 26.8111 28.125 26.5625C28.125 26.3139 28.0262 26.0754 27.8504 25.8996C27.6746 25.7238 27.4361 25.625 27.1875 25.625H2.1875Z" fill="#5C9C0E"/>
</svg>
