<svg width="911" height="1092" viewBox="0 0 911 1092" fill="none" xmlns="http://www.w3.org/2000/svg">
<g opacity="0.3">
<path d="M327.261 1040.43C61.8069 1012.24 -127.618 746.134 -99.4439 480.84C-71.2743 215.583 166.783 23.4054 432.273 51.5998C465.458 55.1241 489.053 61.8379 505.947 71.3872C522.825 80.9278 533.033 93.3097 539.435 108.224C545.846 123.157 548.447 140.645 550.069 160.409C550.697 168.058 551.179 176.057 551.68 184.377C552.471 197.514 553.31 211.45 554.849 226.071C559.884 273.896 572.427 329.321 615.357 389.703C658.249 450.031 731.449 515.272 857.719 582.835C849.401 759.054 783.161 880.457 685.885 954.306C588.54 1028.21 460.05 1054.54 327.261 1040.43Z" stroke="#5C9C0E"/>
<path d="M307.564 947.762C107.71 926.538 -34.9205 726.206 -13.7101 526.481C7.49633 326.792 186.73 182.121 386.619 203.349C411.605 206.002 429.357 211.055 442.06 218.235C454.748 225.406 462.419 234.71 467.231 245.917C472.05 257.144 474.009 270.296 475.231 285.178C475.703 290.933 476.066 296.954 476.443 303.219C477.039 313.115 477.672 323.617 478.831 334.629C482.626 370.658 492.078 412.42 524.428 457.914C556.739 503.355 611.87 552.485 706.941 603.359C700.664 735.991 650.794 827.354 577.579 882.93C504.293 938.559 407.553 958.381 307.564 947.762Z" stroke="#5C9C0E"/>
<path d="M292.475 774.21C183.872 762.677 106.331 653.86 117.853 545.361C129.371 436.898 226.777 358.324 335.416 369.861C348.995 371.303 358.62 374.046 365.495 377.93C372.354 381.805 376.494 386.825 379.094 392.875C381.701 398.945 382.765 406.066 383.43 414.154C383.687 417.272 383.884 420.543 384.09 423.949C384.415 429.336 384.76 435.06 385.392 441.05C387.46 460.668 392.614 483.42 410.247 508.202C427.841 532.93 457.837 559.646 509.511 587.3C506.074 659.291 478.976 708.858 439.23 739.009C399.413 769.214 346.839 779.984 292.475 774.21Z" stroke="#5C9C0E"/>
<path d="M294.251 645.437C254.192 641.182 225.552 601.011 229.809 560.931C234.061 520.888 270.011 491.877 310.107 496.135C315.118 496.667 318.638 497.677 321.134 499.087C323.614 500.489 325.103 502.297 326.04 504.479C326.985 506.68 327.376 509.278 327.622 512.27C327.716 513.412 327.789 514.619 327.865 515.88C327.986 517.886 328.115 520.026 328.35 522.25C329.12 529.56 331.042 538.052 337.618 547.298C344.156 556.49 355.269 566.391 374.343 576.626C373.031 603.135 363.034 621.358 348.424 632.445C333.744 643.585 314.343 647.57 294.251 645.437Z" stroke="#5C9C0E"/>
</g>
</svg>
