<svg width="649" height="833" viewBox="0 0 649 833" fill="none" xmlns="http://www.w3.org/2000/svg">
<g opacity="0.3">
<path d="M444.798 793.626C647.145 772.137 791.552 569.282 770.075 367.04C748.601 164.835 567.13 18.3374 364.747 39.83C339.45 42.5166 321.475 47.6335 308.613 54.9041C295.766 62.1661 287.999 71.5876 283.127 82.9372C278.247 94.3058 276.264 107.625 275.027 122.694C274.549 128.521 274.182 134.619 273.8 140.962C273.196 150.983 272.556 161.617 271.382 172.767C267.541 209.249 257.972 251.535 225.221 297.6C192.508 343.612 136.691 393.36 40.434 444.872C46.7905 579.178 97.2841 671.694 171.415 727.973C245.615 784.304 343.562 804.377 444.798 793.626Z" stroke="#5C9C0E"/>
<path d="M459.817 722.959C612.142 706.782 720.866 554.086 704.698 401.843C688.534 249.637 551.92 139.365 399.559 155.545C380.515 157.568 366.996 161.418 357.329 166.882C347.677 172.337 341.845 179.412 338.186 187.935C334.519 196.477 333.027 206.49 332.095 217.836C331.735 222.218 331.459 226.808 331.171 231.584C330.716 239.134 330.233 247.149 329.349 255.547C326.454 283.034 319.242 314.901 294.559 349.614C269.913 384.273 227.875 421.736 155.409 460.523C160.209 561.591 198.22 631.201 254.003 673.545C309.857 715.941 383.593 731.054 459.817 722.959Z" stroke="#5C9C0E"/>
<path d="M471.324 590.617C554.065 581.83 613.156 498.919 604.376 416.239C595.599 333.597 521.382 273.727 438.605 282.518C428.258 283.617 420.937 285.706 415.714 288.656C410.507 291.598 407.367 295.406 405.395 299.996C403.415 304.606 402.604 310.02 402.097 316.185C401.902 318.557 401.752 321.05 401.595 323.646C401.347 327.757 401.083 332.129 400.601 336.698C399.023 351.671 395.088 369.041 381.627 387.96C368.204 406.825 345.333 427.196 305.959 448.277C308.594 503.104 329.239 540.842 359.501 563.798C389.833 586.808 429.891 595.017 471.324 590.617Z" stroke="#5C9C0E"/>
<path d="M469.969 492.422C500.442 489.186 522.243 458.62 519.004 428.113C515.768 397.644 488.413 375.569 457.903 378.809C454.09 379.213 451.424 379.981 449.541 381.045C447.672 382.101 446.555 383.459 445.85 385.1C445.137 386.76 444.84 388.724 444.653 391.004C444.582 391.869 444.526 392.788 444.468 393.749C444.375 395.281 444.276 396.92 444.098 398.617C443.509 404.204 442.039 410.702 437.009 417.774C432.017 424.791 423.545 432.34 409.03 440.138C410.044 460.283 417.65 474.119 428.744 482.539C439.908 491.011 454.67 494.047 469.969 492.422Z" stroke="#5C9C0E"/>
</g>
</svg>
